<?xml version="1.0" encoding="utf-8"?>
<!-- Generator: Adobe Illustrator 25.0.1, SVG Export Plug-In . SVG Version: 6.00 Build 0)  -->
<svg version="1.1" id="レイヤー_1" xmlns="http://www.w3.org/2000/svg" xmlns:xlink="http://www.w3.org/1999/xlink" x="0px"
	 y="0px" viewBox="0 0 300 60" style="enable-background:new 0 0 300 60;" xml:space="preserve">
<style type="text/css">
	.st0{fill:#231815;}
	.st1{fill:#717071;}
	.st2{fill:#FFFFFF;}
</style>
<g>
	<g>
		<path class="st0" d="M45.1,2c0.3,0.1,0.5,0.3,0.7,0.5c0.3,0.4,0.4,1.1,0.4,2.2v11.9c0,0.4,0,0.8,0,1.1c0,0.3-0.1,0.5-0.1,0.7
			c-0.1,0.2-0.2,0.4-0.3,0.5c-0.1,0.1-0.3,0.2-0.4,0.3c-0.1,0.1-0.2,0.1-0.3,0.1l0.1,0.1h1.9V1.9L45.1,2L45.1,2z M49.1,19.3
			c-0.2-0.1-0.3-0.2-0.4-0.3c-0.1-0.1-0.2-0.3-0.3-0.5c-0.1-0.2-0.1-0.4-0.1-0.7c0-0.3,0-0.6,0-1.1V4.7c0-1.1,0.1-1.8,0.4-2.2
			C48.8,2.3,49,2.1,49.3,2l-0.1-0.1h-1.8v17.6h1.9l0.1-0.1C49.3,19.4,49.2,19.3,49.1,19.3z"/>
		<path class="st0" d="M57.1,2c0.1,0,0.2,0.1,0.3,0.1c0.2,0.1,0.3,0.2,0.4,0.3C58,2.6,58,2.8,58.1,2.9c0.1,0.2,0.1,0.4,0.1,0.7
			c0,0.3,0,0.6,0,1.1v11.9c0,1.1-0.1,1.8-0.4,2.2c-0.2,0.2-0.4,0.4-0.7,0.5l0.1,0.1H59V1.9L57.1,2L57.1,2z M59.6,1.9v17.6h1.8
			l0.1-0.1c-0.1,0-0.2-0.1-0.3-0.1c-0.2-0.1-0.3-0.2-0.4-0.3c-0.1-0.1-0.2-0.3-0.3-0.5c-0.1-0.2-0.1-0.4-0.1-0.7c0-0.3,0-0.6,0-1.1
			v-5.9c0-0.1,0.1-0.2,0.2-0.2h8.2V10h-8.1c-0.1,0-0.2-0.1-0.2-0.2V2.4c0-0.1,0.1-0.2,0.2-0.2h6c0.5,0,1.3,0,1.7,0.1
			c0.4,0.1,0.8,0.2,1.1,0.4c0.3,0.2,0.6,0.5,0.8,0.9c0.1,0.2,0.2,0.5,0.3,0.8l0.1-0.1L70.5,2l-0.1-0.1L59.6,1.9L59.6,1.9z"/>
		<path class="st0" d="M105.7,17.6c-0.9-1.4-1.4-3-1.4-4.9c0-0.7,0.1-1.5,0.3-2.2c0.2-0.7,0.4-1.4,0.7-2c0.3-0.6,0.7-1.2,1.1-1.7
			c0.2-0.3,0.5-0.6,0.7-0.8c-0.5,0.3-1,0.7-1.4,1.1c-0.5,0.5-0.9,1-1.2,1.6c-0.3,0.6-0.6,1.2-0.8,1.9c-0.2,0.7-0.3,1.3-0.3,2
			c0,1.8,0.5,3.3,1.6,4.6c0.6,0.7,1.2,1.2,2,1.7C106.5,18.6,106.1,18.1,105.7,17.6z M113.7,13.4C113.7,13.5,113.8,13.5,113.7,13.4
			c0.2,0.1,0.3,0.2,0.4,0.2c0.1,0.1,0.2,0.2,0.3,0.4c0.1,0.2,0.1,0.4,0.1,0.6c0,0.2,0,0.5,0,0.9v3.1l0,0l-0.1,0
			c-1,0.6-2,0.8-3.1,0.8c-0.8,0-1.6-0.2-2.3-0.5c-0.7-0.4-1.3-0.9-1.9-1.5c-0.5-0.6-0.9-1.4-1.3-2.3c-0.3-0.9-0.5-1.9-0.5-3
			c0-1,0.1-1.9,0.4-2.7c0.3-0.8,0.6-1.6,1.1-2.2c0.5-0.6,1.1-1.1,1.8-1.5c0.7-0.4,1.5-0.5,2.4-0.5c0,0,0,0,0,0c1.2,0,2.2,0.3,3.1,1
			c0.6,0.4,1,1,1.4,1.7l0.1-0.1V5.5l-0.1-0.1c0,0,0,0.1-0.1,0.1c-0.1,0.2-0.3,0.3-0.5,0.3h0c-0.1,0-0.2,0-0.4-0.1
			c-0.1,0-0.3-0.1-0.5-0.2c-0.4-0.2-0.8-0.3-1.1-0.4c-0.3-0.1-0.5-0.2-0.8-0.2S112,5,111.7,5c-0.2,0-0.5,0-0.8,0s-0.6,0-0.8,0
			c-0.8,0.1-1.5,0.4-2.2,0.8c-0.5,0.3-0.9,0.7-1.3,1.2c-0.4,0.5-0.7,1.1-1,1.7s-0.5,1.2-0.7,1.9c-0.2,0.7-0.2,1.4-0.2,2
			c0,1.8,0.4,3.3,1.3,4.6c1.1,1.7,2.7,2.5,4.8,2.7c0.1,0,0.3,0,0.4,0c0.5,0,1,0,1.4-0.1c0.4-0.1,0.9-0.1,1.3-0.2
			c0.4-0.1,0.8-0.2,1.2-0.4h0v-5.9L113.7,13.4L113.7,13.4z M116.9,13.4h-1.3v5.7c0.2-0.1,0.4-0.2,0.6-0.3v-3.1c0-0.5,0-0.8,0.1-1.1
			c0.1-0.3,0.1-0.5,0.3-0.7C116.8,13.6,116.9,13.5,116.9,13.4L116.9,13.4z"/>
		<path class="st0" d="M75.9,5.5c0.2,0.1,0.4,0.2,0.5,0.4c0.2,0.3,0.3,0.9,0.3,1.8v9.5c0,0.3,0,0.6,0,0.9c0,0.2,0,0.4-0.1,0.6
			c-0.1,0.2-0.1,0.3-0.2,0.4c-0.1,0.1-0.2,0.2-0.3,0.3c-0.1,0-0.2,0.1-0.2,0.1l0.1,0.1h1.5V5.4L75.9,5.5L75.9,5.5z M79.2,19.3
			c-0.1-0.1-0.3-0.2-0.3-0.3c-0.1-0.1-0.2-0.2-0.2-0.4s-0.1-0.4-0.1-0.6c0-0.2,0-0.5,0-0.9V7.7c0-0.9,0.1-1.5,0.3-1.8
			c0.1-0.2,0.3-0.3,0.5-0.4l-0.1-0.1h-1.4v14.1h1.5l0.1-0.1C79.4,19.4,79.3,19.3,79.2,19.3z"/>
		<path class="st0" d="M85.4,5.4L85.4,5.4c0.1,0.1,0.2,0.2,0.3,0.2c0.2,0.1,0.3,0.2,0.5,0.3c0.1,0.1,0.3,0.2,0.4,0.4
			C86.8,6.4,87,6.6,87.3,7v10.3c0,0.8-0.1,1.4-0.3,1.7c-0.1,0.2-0.3,0.4-0.6,0.5l0.1,0.1h2.2l0.1-0.1c-0.2-0.1-0.3-0.2-0.5-0.3
			c-0.3-0.3-0.3-0.9-0.3-1.8V7.9l10.1,12.3v-1.1L87,5.4H85.4z M98.8,5.4h-2.1l-0.1,0.1c0.1,0.1,0.2,0.1,0.3,0.2
			c0.2,0.2,0.3,0.4,0.3,0.7c0.1,0.3,0.1,0.7,0.1,1.2v8.7L88.5,5.4h-0.9l10.5,12.9V7.6c0-0.5,0-0.9,0.1-1.2c0.1-0.3,0.2-0.5,0.3-0.7
			C98.6,5.6,98.7,5.5,98.8,5.4L98.8,5.4z"/>
	</g>
	<g>
		<path class="st1" d="M54.5,26.8c-0.1,0.1-0.1,0.1-0.3,0.1c0,0-0.1,0-0.1,0c-1,1-2.5,2.3-3.8,3.2c0.1,0,0.3,0.1,0.3,0.1
			c0,0.1-0.1,0.2-0.3,0.2v7.2h-1v-6.9c-1.4,1-3.3,2.1-5.1,3c-0.1-0.2-0.4-0.5-0.6-0.7c3.6-1.7,7.6-4.5,9.8-6.9L54.5,26.8z"/>
		<path class="st1" d="M67.5,27.7c0,0.1-0.1,0.1-0.2,0.1c-1.1,5.1-3.7,8.1-8,9.6c-0.1-0.2-0.4-0.6-0.6-0.8c4.1-1.3,6.7-4.3,7.5-8.4
			h-8.7v-0.9h9.1l0.2-0.1L67.5,27.7z"/>
		<path class="st1" d="M80.6,26.8c-0.1,0.1-0.1,0.1-0.3,0.1c0,0-0.1,0-0.1,0c-1,1-2.5,2.3-3.8,3.2c0.1,0,0.3,0.1,0.3,0.1
			c0,0.1-0.1,0.2-0.3,0.2v7.2h-1v-6.9c-1.4,1-3.3,2.1-5.1,3c-0.1-0.2-0.4-0.5-0.6-0.7c3.6-1.7,7.6-4.5,9.8-6.9L80.6,26.8z"/>
		<path class="st1" d="M83.8,27.1c1.4,0.4,3,1.1,4,1.8l-0.5,0.8c-1-0.7-2.5-1.4-3.9-1.9L83.8,27.1z M83.8,36.3
			c4.7-1.5,7.9-4.1,9.5-7.8c0.3,0.2,0.6,0.4,0.9,0.5c-1.7,3.7-4.9,6.5-9.5,8c0,0.1-0.1,0.3-0.2,0.3L83.8,36.3z"/>
		<path class="st1" d="M106.1,28.6c-0.1,0.1-0.1,0.1-0.2,0.2c-1.4,4.4-3.6,7.1-7.2,8.9c-0.1-0.2-0.4-0.5-0.7-0.7
			c3.4-1.7,5.6-4.2,6.7-7.9H100c-0.8,1.2-1.8,2.3-2.9,3.3c-0.2-0.2-0.5-0.4-0.7-0.6c1.8-1.4,3.3-3.5,4.2-5.8l1.3,0.3
			c0,0.1-0.2,0.2-0.4,0.2c-0.3,0.6-0.6,1.2-0.9,1.8h4.6l0.2-0.1L106.1,28.6z M104.4,25.6c0.6,0.5,1.4,1.3,1.7,1.9l-0.5,0.4
			c-0.4-0.6-1.1-1.4-1.7-1.9L104.4,25.6z M106.3,25.2c0.6,0.5,1.4,1.3,1.7,1.9l-0.5,0.4c-0.4-0.6-1.1-1.4-1.7-1.9L106.3,25.2z"/>
		<path class="st1" d="M119.3,36.2c0.5,0,2-0.1,2.8-0.2c0,0.3,0,0.7,0.1,1c-0.9,0.1-2.2,0.1-2.8,0.1H116c-2,0-3-0.9-3-2.8v-7.8
			l1.3,0.1c0,0.1-0.1,0.2-0.4,0.2v4.3c2-0.6,4.9-1.7,6.6-2.6l0.7,0.9c0,0-0.1,0-0.2,0c-0.1,0-0.1,0-0.2,0c-1.6,0.8-4.7,1.9-7,2.6
			v2.2c0,1.3,0.7,1.9,2,1.9L119.3,36.2L119.3,36.2z M120.5,26.1c0.6,0.5,1.3,1.4,1.7,2l-0.5,0.4c-0.4-0.6-1.1-1.5-1.6-2L120.5,26.1z
			 M122.2,25.3c0.6,0.5,1.3,1.4,1.7,1.9l-0.5,0.4c-0.4-0.6-1.1-1.4-1.6-1.9L122.2,25.3z"/>
		<path class="st1" d="M134.4,36.2v0.7h-8.8v-0.7h5.2c0.2-1.3,0.6-3.8,0.7-5.2h-4.9v-0.7h5.1l0.2-0.1l0.6,0.3c0,0.1-0.1,0.1-0.2,0.1
			c-0.2,1.3-0.6,4.2-0.8,5.5H134.4z"/>
		<path class="st1" d="M135.8,31.1h10v1h-9.6c-0.1,0.1-0.2,0.2-0.4,0.3L135.8,31.1z"/>
		<path class="st1" d="M158.6,31.2h-4.5l0.2,0.1c0,0.1-0.1,0.1-0.3,0.2c-0.4,2.5-1.3,4.7-4.1,6.1c-0.2-0.2-0.5-0.5-0.7-0.7
			c2.8-1.3,3.6-3.2,3.9-5.7h-5.2v-0.9h10.7L158.6,31.2L158.6,31.2z M157.3,27.5h-8.2v-0.9h8.2V27.5z"/>
		<path class="st1" d="M168.5,29.7c-0.1,0.1-0.1,0.1-0.2,0.1c-0.1,0-0.1,0-0.2,0c-0.8,0.8-1.9,1.7-2.8,2.4c0.2,0.1,0.2,0.1,0.3,0.1
			c0,0.1-0.1,0.1-0.2,0.1V38h-0.8v-5.4c-1.1,0.8-2.8,1.8-4.2,2.5c-0.1-0.2-0.3-0.5-0.5-0.6c2.2-1,5.5-3,7.7-5.4L168.5,29.7z"/>
		<path class="st1" d="M171.7,31.1h10v1h-9.6c-0.1,0.1-0.2,0.2-0.4,0.3L171.7,31.1z"/>
		<path class="st1" d="M187,31.9c0-1.7,0.5-3,1.4-4c0.9-1,2.1-1.5,3.6-1.5c1,0,1.8,0.2,2.6,0.7c0.8,0.5,1.3,1.1,1.7,1.9
			c0.4,0.8,0.6,1.7,0.6,2.8c0,1-0.2,2-0.6,2.8c-0.4,0.8-1,1.4-1.8,1.9c-0.8,0.4-1.6,0.6-2.5,0.6c-1,0-1.8-0.2-2.6-0.7
			c-0.8-0.5-1.3-1.1-1.7-1.9C187.2,33.7,187,32.8,187,31.9z M188.4,32c0,1.2,0.3,2.2,1,2.9c0.7,0.7,1.5,1.1,2.5,1.1
			c1,0,1.9-0.4,2.5-1.1c0.7-0.7,1-1.7,1-3.1c0-0.8-0.1-1.6-0.4-2.2s-0.7-1.1-1.2-1.5c-0.5-0.3-1.2-0.5-1.8-0.5c-1,0-1.8,0.3-2.5,1
			C188.8,29.3,188.4,30.4,188.4,32z"/>
		<path class="st1" d="M198.8,37v-7.5h1.1v1.1c0.5-0.8,1.3-1.2,2.4-1.2c0.4,0,0.9,0.1,1.2,0.2c0.4,0.2,0.7,0.4,0.8,0.6
			c0.2,0.3,0.3,0.6,0.4,0.9c0,0.2,0.1,0.6,0.1,1.2V37h-1.3v-4.5c0-0.5-0.1-0.9-0.1-1.2c-0.1-0.3-0.3-0.5-0.5-0.6
			c-0.3-0.2-0.5-0.2-0.9-0.2c-0.5,0-1,0.2-1.4,0.5c-0.4,0.3-0.6,1-0.6,1.9V37L198.8,37L198.8,37z"/>
		<path class="st1" d="M207.2,37V26.7h1.3V37H207.2z"/>
		<path class="st1" d="M210.7,28.1v-1.5h1.3v1.5H210.7z M210.7,37v-7.5h1.3V37H210.7z"/>
		<path class="st1" d="M214.3,37v-7.5h1.1v1.1c0.5-0.8,1.3-1.2,2.4-1.2c0.4,0,0.9,0.1,1.2,0.2c0.4,0.2,0.7,0.4,0.8,0.6
			c0.2,0.3,0.3,0.6,0.4,0.9c0,0.2,0.1,0.6,0.1,1.2V37h-1.3v-4.5c0-0.5-0.1-0.9-0.1-1.2c-0.1-0.3-0.3-0.5-0.5-0.6
			c-0.3-0.2-0.5-0.2-0.9-0.2c-0.5,0-1,0.2-1.4,0.5c-0.4,0.3-0.6,1-0.6,1.9V37L214.3,37L214.3,37z"/>
		<path class="st1" d="M227.8,34.6l1.3,0.2c-0.2,0.8-0.6,1.4-1.1,1.8c-0.6,0.4-1.3,0.6-2.1,0.6c-1.1,0-2-0.3-2.6-1
			c-0.6-0.7-1-1.6-1-2.8c0-1.3,0.3-2.2,1-2.9c0.6-0.7,1.5-1,2.5-1c1,0,1.8,0.3,2.4,1c0.6,0.7,1,1.6,1,2.9c0,0.1,0,0.2,0,0.3h-5.6
			c0,0.8,0.3,1.4,0.7,1.9c0.4,0.4,0.9,0.7,1.6,0.7c0.5,0,0.9-0.1,1.2-0.4C227.3,35.5,227.6,35.1,227.8,34.6z M223.6,32.5h4.2
			c-0.1-0.6-0.2-1.1-0.5-1.4c-0.4-0.5-0.9-0.7-1.6-0.7c-0.6,0-1.1,0.2-1.5,0.6C223.9,31.3,223.6,31.9,223.6,32.5z"/>
	</g>
</g>
<rect x="2" y="4" class="st2" width="39" height="33"/>
</svg>
